# xmcd
#
# Track frame offsets:
#	150
#	14736
#	27580
#	47636
#	65313
#	79786
#	92406
#
# Disc length: 1443 seconds
#
# Revision: 1
# Processed by: cddbd v1.5.2PL0 Copyright (c) Steve Scherf et al.
# Submitted via: audiograbber 1.83.01
#
DISCID=5105a107
DTITLE=Lauris Vidal - Shoot Shoot Your Skeletons
DYEAR=2006
DGENRE=Blues
TTITLE0=Bitter Pill for St. Valentine
TTITLE1=Body Bags
TTITLE2=Skeletons
TTITLE3=Good Years, Dark Clouds
TTITLE4=Highmark
TTITLE5=Freed
TTITLE6=Walk Alone
EXTD=
EXTT0=
EXTT1=
EXTT2=
EXTT3=
EXTT4=
EXTT5=
EXTT6=
PLAYORDER=
